<svg width="1024" height="1024" viewBox="0 0 1024 1024" fill="none" xmlns="http://www.w3.org/2000/svg">
<g clip-path="url(#clip0_203_2)">
<path d="M332.054 544.417L497.852 414.489C505.067 408.835 515.202 408.81 522.446 414.427L690.066 544.429C697.347 550.076 699.828 559.966 696.074 568.381L561.019 871.148C557.803 878.357 550.648 883 542.754 883H479.479C471.585 883 464.429 878.357 461.214 871.148L326.125 568.307C322.387 559.926 324.831 550.077 332.054 544.417Z" fill="#282824"/>
<path d="M750.448 334.966V370.367H698.002C691.709 290.649 749.574 256.734 779.293 249.742C800.272 188.118 839.606 214.341 842.228 215.652C844.851 216.963 899.919 290.387 861.896 240.563C826.495 206.474 816.005 219.585 812.072 234.008V249.742L818.628 262.853L805.516 300.876C802.02 301.75 792.929 302.974 784.538 300.876C774.049 298.254 750.448 332.344 750.448 334.966Z" fill="#BBBE33"/>
<path d="M762.248 370.367C760.937 370.367 597.044 334.966 564.265 477.881C564.265 485.748 566.887 503.58 577.376 511.971C590.488 522.46 597.044 525.082 616.711 530.327C636.378 535.572 641.623 534.26 641.623 530.327C641.623 526.394 653.423 508.037 673.09 492.304C692.757 476.57 708.491 487.059 718.98 477.881C729.47 468.703 750.448 439.858 762.248 439.858C774.048 439.858 774.048 439.858 785.849 434.613C797.649 429.369 792.404 413.635 792.404 404.457C792.404 395.279 763.559 370.367 762.248 370.367Z" fill="#BBBE33"/>
<path d="M272.789 339.988V375.389H325.235C331.528 295.672 273.663 261.757 243.944 254.764C222.965 193.14 183.631 219.363 181.008 220.674C178.386 221.985 123.318 295.409 161.341 245.586C196.742 211.496 207.231 224.607 211.165 239.03V254.764L204.609 267.875L217.721 305.899C221.217 306.773 230.308 307.996 238.699 305.899C249.188 303.276 272.789 337.366 272.789 339.988Z" fill="#BBBE33"/>
<path d="M260.988 375.389C262.299 375.389 426.193 339.989 458.971 482.904C458.971 490.77 456.349 508.602 445.86 516.993C432.748 527.483 426.193 530.105 406.525 535.349C386.858 540.594 381.614 539.283 381.614 535.349C381.614 531.416 369.813 513.06 350.146 497.326C330.479 481.592 314.745 492.082 304.256 482.904C293.767 473.725 272.788 444.88 260.988 444.88C249.188 444.88 249.188 444.88 237.388 439.636C225.587 434.391 230.832 418.657 230.832 409.479C230.832 400.301 259.677 375.389 260.988 375.389Z" fill="#BBBE33"/>
<path d="M270.312 527.356C309.726 493.617 396.217 557.035 434.535 592.962L418.113 681.998C307.38 659.504 273.44 569.531 270.312 527.356Z" fill="#282824"/>
<path d="M752.718 527.369C713.255 493.586 626.654 557.085 588.287 593.057L604.73 682.205C715.604 659.684 749.586 569.597 752.718 527.369Z" fill="#282824"/>
<path d="M451.642 683.616C451.642 687.446 439.771 690.551 425.127 690.551C410.483 690.551 398.612 687.446 398.612 683.616C398.612 679.785 410.483 676.681 425.127 676.681C439.771 676.681 451.642 679.785 451.642 683.616Z" fill="#C6C935" fill-opacity="0.74"/>
<path d="M451.642 683.616C451.642 687.446 439.771 690.551 425.127 690.551C410.483 690.551 398.612 687.446 398.612 683.616C398.612 679.785 410.483 676.681 425.127 676.681C439.771 676.681 451.642 679.785 451.642 683.616Z" fill="#C6C935" fill-opacity="0.74"/>
<rect x="398.612" y="673.444" width="53.0305" height="8.32213" fill="#282824"/>
<path d="M571.388 683.616C571.388 687.446 583.26 690.551 597.904 690.551C612.548 690.551 624.419 687.446 624.419 683.616C624.419 679.785 612.548 676.681 597.904 676.681C583.26 676.681 571.388 679.785 571.388 683.616Z" fill="#C6C935" fill-opacity="0.74"/>
<path d="M571.388 683.616C571.388 687.446 583.26 690.551 597.904 690.551C612.548 690.551 624.419 687.446 624.419 683.616C624.419 679.785 612.548 676.681 597.904 676.681C583.26 676.681 571.388 679.785 571.388 683.616Z" fill="#C6C935" fill-opacity="0.74"/>
<rect width="53.0305" height="8.32213" transform="matrix(-1 0 0 1 624.419 673.444)" fill="#282824"/>
<path d="M506.436 534.025L519.204 560.834L542.307 560.047L524.935 574.888L534.972 598.115L511.354 586.02L491.163 602.452L495.785 576.347L473.881 562.649L500.051 561.878L506.436 534.025Z" fill="#282824"/>
<path d="M519.204 560.834L506.436 534.025L500.051 561.878M514.173 561.005L508.245 550.891L505.532 561.3M505.532 561.3L542.307 560.047L524.935 574.888M505.532 561.3L504.326 565.636M523.216 569.684L529.446 564.865H520.604L534.972 598.115L511.259 585.972M515.178 582.888L525.728 588.67L521.006 578.165M504.326 565.636L501.814 574.711L497.694 572.138L498.62 566.311M504.326 565.636L516.283 565.251L519.498 573.057M500.051 561.878L473.881 562.649L506.243 582.888M500.051 561.878L498.62 566.311M510.154 579.922L489.757 567.178L498.62 566.311M519.498 573.057L498.62 588.67L500.051 579.015M519.498 573.057L521.006 578.165M495.785 576.347L491.163 602.452L521.006 578.165" stroke="#BBBE33"/>
</g>
<defs>
<clipPath id="clip0_203_2">
<rect width="1024" height="1024" fill="white"/>
</clipPath>
</defs>
</svg>
